<svg width="0" height="0" class="hidden">
<symbol version="1.0" xmlns="http://www.w3.org/2000/svg" preserveAspectRatio="xMidYMid meet" viewBox="0 0 700.000000 1414.000000" id="tap">
    <metadata>Created by potrace 1.12, written by Peter Selinger 2001-2015</metadata>
    <g transform="translate(0.000000,1414.000000) scale(0.100000,-0.100000)" stroke="none">
      <path d="M3493 13979 c-360 -22 -695 -127 -953 -298 -95 -62 -252 -214 -318
-306 -149 -210 -224 -395 -292 -725 -16 -78 -33 -299 -34 -460 -1 -158 18
-464 34 -555 5 -27 14 -81 20 -120 46 -286 64 -384 85 -465 9 -36 23 -94 30
-130 8 -36 20 -87 28 -115 8 -27 23 -77 32 -110 10 -33 21 -78 26 -100 5 -22
18 -69 29 -105 12 -36 32 -105 45 -155 13 -49 34 -124 48 -165 31 -96 89 -283
117 -380 12 -41 28 -90 36 -108 8 -18 14 -39 14 -47 0 -8 22 -83 49 -167 27
-84 68 -216 91 -293 24 -77 53 -171 65 -210 13 -38 28 -95 35 -125 6 -30 23
-91 36 -135 49 -161 55 -181 64 -225 5 -25 22 -94 38 -155 36 -133 96 -396
112 -485 6 -36 16 -85 21 -108 16 -74 50 -299 63 -422 3 -25 12 -103 21 -175
28 -234 37 -504 30 -895 -7 -389 -10 -424 -57 -585 -39 -132 -160 -361 -256
-485 -31 -40 -236 -247 -328 -330 -188 -171 -358 -417 -470 -680 -111 -260
-161 -633 -134 -1005 13 -175 56 -419 90 -510 30 -77 87 -212 118 -275 93
-192 297 -428 485 -563 140 -100 458 -247 535 -247 12 0 33 -10 47 -23 l26
-22 9 -345 c6 -190 14 -417 20 -505 5 -88 10 -195 10 -237 0 -120 14 -168 58
-196 77 -50 145 -64 328 -69 154 -4 179 -3 250 17 100 28 122 42 128 82 3 18
10 186 16 372 7 187 16 351 22 365 5 14 14 134 20 267 l12 241 30 12 c29 11
84 28 216 67 30 9 84 30 120 46 36 17 90 41 120 55 166 76 380 248 501 405 91
118 109 147 174 276 167 334 223 648 197 1115 -14 239 -25 307 -88 522 -99
340 -319 664 -604 890 -106 84 -174 150 -239 230 -79 97 -191 257 -191 271 0
3 -9 19 -21 35 -11 16 -37 73 -58 127 -85 221 -86 232 -86 807 1 306 5 535 13
610 7 66 14 147 17 180 6 60 21 192 50 428 27 219 83 483 180 857 19 74 39
148 44 165 6 16 15 49 21 73 6 23 14 40 19 38 4 -3 8 9 8 27 0 33 19 101 73
272 18 55 42 136 55 180 29 104 72 244 150 490 35 110 66 209 68 220 7 26 47
162 57 195 5 14 23 72 40 130 18 58 40 132 50 165 10 33 21 76 25 95 3 19 10
44 14 55 13 31 68 230 90 325 10 47 33 144 49 215 28 119 42 194 86 460 9 50
20 151 26 225 6 74 15 176 20 227 6 50 10 194 10 320 0 343 -35 553 -137 820
-33 88 -137 278 -186 342 -59 75 -185 201 -238 235 -24 16 -62 41 -84 56 -98
64 -341 157 -472 180 -169 29 -426 41 -620 29z m1227 -1636 c21 -23 29 -45 34
-89 7 -63 -3 -109 -77 -359 -27 -89 -37 -143 -39 -210 -3 -89 -3 -90 -28 -90
-25 0 -25 2 -32 101 -5 85 -15 127 -56 250 -59 177 -77 258 -68 316 8 51 20
68 66 97 29 18 47 21 104 19 62 -3 71 -7 96 -35z m-1837 -54 c43 -12 111 -68
133 -110 48 -93 63 -190 63 -409 0 -189 -16 -314 -51 -408 -29 -79 -107 -155
-178 -176 -111 -33 -215 -16 -287 47 -100 89 -130 225 -120 547 4 157 9 197
30 268 38 129 108 215 197 240 47 14 166 14 213 1z m1380 -135 c56 -19 109
-76 132 -143 9 -25 19 -94 22 -152 l6 -107 -27 -17 c-21 -14 -58 -19 -174 -24
-81 -4 -153 -10 -161 -15 -10 -7 -12 -25 -7 -80 16 -173 115 -246 249 -182 66
31 78 32 94 8 9 -15 7 -28 -9 -63 -26 -59 -54 -87 -113 -115 -56 -27 -151 -32
-220 -13 -56 16 -117 80 -144 153 -57 153 -47 479 19 619 56 119 202 176 333
131z m-578 -49 c88 -51 131 -212 120 -450 -10 -212 -39 -310 -112 -376 -72
-66 -198 -77 -249 -22 -36 39 -47 26 -46 -52 0 -60 4 -72 22 -85 108 -74 90
-141 -42 -155 -98 -10 -202 9 -229 43 -28 36 -19 78 27 117 l35 30 6 382 c5
324 4 383 -8 387 -8 2 -32 8 -54 12 -57 13 -60 48 -8 105 44 48 86 69 141 69
46 0 61 -14 69 -64 7 -45 21 -45 52 0 63 92 178 117 276 59z m968 -582 c107
-17 142 -165 56 -237 -61 -52 -183 -42 -220 17 -16 25 -19 45 -17 95 4 72 21
95 84 117 46 17 47 17 97 8z"></path>
      <path d="M2697 12140 c-52 -41 -62 -94 -61 -315 1 -265 26 -438 70 -482 34
-34 92 -32 126 5 45 48 53 91 52 292 -1 203 -22 385 -54 458 -27 62 -85 80
-133 42z"></path>
      <path d="M4088 12013 c-28 -33 -35 -57 -37 -130 -2 -54 1 -73 11 -74 41 -5
174 4 182 12 25 24 -4 141 -46 186 -27 29 -88 31 -110 6z"></path>
      <path d="M3435 11958 c-21 -19 -27 -36 -35 -104 -16 -124 20 -405 57 -460 23
-33 94 -44 125 -20 33 24 42 67 40 191 -2 205 -41 377 -90 404 -32 17 -69 13
-97 -11z"></path>
      <path d="M4754 9646 c4 -12 1 -23 -6 -28 -11 -6 -11 -8 0 -8 19 0 27 29 12 43
-10 10 -12 8 -6 -7z"></path>
      <path d="M4713 9566 c1 -11 9 -21 17 -23 10 -3 11 -2 4 4 -6 4 -14 15 -17 23
-5 11 -6 9 -4 -4z"></path>
      <path d="M4701 9493 c-14 -48 -13 -63 0 -40 11 18 21 77 14 77 -2 0 -9 -17
-14 -37z"></path>
      <path d="M4684 9412 c3 -5 2 -12 -3 -14 -4 -1 -12 -14 -16 -28 -8 -28 -6 -27
18 12 12 19 14 29 5 34 -6 4 -8 3 -4 -4z"></path>
      <path d="M4632 9265 c-7 -14 -12 -31 -12 -38 1 -7 7 3 16 22 17 39 13 54 -4
16z"></path>
      <path d="M4611 9194 c0 -11 3 -14 6 -6 3 7 2 16 -1 19 -3 4 -6 -2 -5 -13z"></path>
      <path d="M4590 9139 c0 -5 5 -7 10 -4 6 3 10 8 10 11 0 2 -4 4 -10 4 -5 0 -10
-5 -10 -11z"></path>
      <path d="M4561 9024 c0 -11 3 -14 6 -6 3 7 2 16 -1 19 -3 4 -6 -2 -5 -13z"></path>
    </g>
  </symbol>
  <symbol version="1.0" xmlns="http://www.w3.org/2000/svg" preserveAspectRatio="xMidYMid meet" viewBox="0 0 700.000000 700.000000" id="bocce">
    <metadata>Created by potrace 1.12, written by Peter Selinger 2001-2015</metadata>
    <g transform="translate(0.000000,700.000000) scale(0.100000,-0.100000)" stroke="none">
      <path d="M2990 6707 c-3 -3 -64 -10 -135 -16 -72 -5 -150 -14 -175 -20 -25 -5
-67 -14 -95 -20 -49 -9 -124 -27 -215 -51 -25 -7 -59 -18 -77 -26 -17 -8 -42
-14 -55 -14 -12 0 -32 -7 -42 -15 -11 -8 -28 -15 -37 -15 -10 0 -30 -6 -46
-14 -15 -7 -44 -20 -63 -28 -46 -20 -252 -122 -315 -156 -108 -59 -360 -236
-401 -283 -47 -53 -103 -203 -123 -327 -5 -34 -13 -67 -17 -73 -3 -6 -10 -57
-15 -113 -5 -55 -13 -132 -18 -171 -13 -86 -13 -217 -1 -310 5 -38 14 -114 20
-169 10 -91 30 -156 48 -156 5 0 13 5 20 12 12 12 59 31 122 50 19 5 39 14 45
19 5 5 25 9 45 9 19 1 53 7 75 15 87 32 400 12 503 -31 18 -8 41 -14 52 -14
10 0 31 -6 47 -14 15 -8 46 -22 68 -32 22 -9 47 -21 55 -25 8 -5 24 -13 35
-18 61 -28 174 -113 281 -213 33 -32 66 -58 72 -58 6 0 61 33 121 73 177 116
257 167 264 167 3 0 25 13 49 29 24 16 61 39 83 51 22 12 54 30 70 40 17 10
46 27 65 38 39 20 176 98 200 112 8 5 22 11 30 14 8 4 31 16 50 27 85 52 546
279 566 279 6 0 21 11 34 25 19 21 21 27 10 40 -18 22 -83 158 -104 220 -10
28 -22 58 -27 67 -8 17 -14 38 -39 138 -27 109 -32 141 -37 237 -7 129 19 260
68 343 5 8 14 26 20 40 5 14 33 48 61 77 53 54 57 76 16 86 -13 3 -50 15 -83
27 -89 32 -181 56 -355 90 -30 6 -75 16 -100 22 -86 20 -606 49 -620 35z"></path>
      <path d="M4495 6313 c-22 -2 -54 -10 -72 -18 -17 -8 -34 -15 -38 -15 -12 0
-55 -44 -55 -56 0 -6 -6 -17 -14 -23 -31 -26 -45 -208 -26 -346 16 -115 37
-178 117 -340 57 -114 69 -121 147 -86 25 12 49 21 54 21 5 0 23 7 38 15 16 8
38 15 50 15 11 0 24 4 30 9 5 6 27 14 49 20 22 6 60 15 85 21 25 7 58 18 73
26 16 8 41 14 55 14 15 1 38 7 52 15 14 8 37 14 52 15 15 0 42 6 60 14 18 8
68 22 111 32 43 10 80 21 83 26 6 10 -46 68 -191 213 -160 161 -314 286 -469
379 -81 49 -114 58 -191 49z"></path>
      <path d="M804 5503 c-48 -66 -66 -93 -81 -123 -4 -8 -19 -33 -34 -55 -25 -38
-147 -276 -174 -340 -12 -28 -21 -48 -59 -138 -9 -21 -16 -43 -16 -50 0 -7 -7
-25 -15 -40 -8 -15 -17 -43 -21 -63 -3 -19 -10 -37 -15 -39 -4 -3 -11 -27 -15
-53 -3 -26 -10 -52 -15 -57 -4 -6 -12 -39 -18 -75 -6 -36 -15 -94 -21 -130
-39 -234 -42 -276 -37 -510 2 -129 9 -264 15 -300 6 -36 16 -96 22 -135 15
-93 34 -187 53 -255 9 -30 21 -75 27 -100 7 -25 18 -59 26 -77 8 -17 14 -39
14 -50 0 -10 7 -27 15 -37 8 -11 15 -28 15 -37 0 -10 7 -30 15 -46 8 -15 26
-54 40 -85 14 -32 32 -58 39 -58 8 0 30 15 49 33 19 17 55 49 81 70 25 21 46
46 46 55 0 9 -13 44 -29 77 -40 83 -79 188 -91 250 -5 22 -13 58 -19 80 -56
224 -56 547 1 710 5 17 14 46 18 65 34 144 160 375 273 501 48 53 48 53 42
109 -4 30 -13 77 -21 104 -8 27 -14 65 -14 84 0 19 -7 62 -17 96 -13 50 -16
116 -17 373 -1 172 -4 313 -7 313 -3 0 -27 -30 -55 -67z"></path>
      <path d="M5450 5380 c-25 -4 -61 -13 -80 -19 -19 -6 -52 -11 -73 -11 -21 0
-47 -5 -58 -10 -10 -6 -38 -14 -61 -19 -24 -5 -59 -15 -78 -21 -73 -26 -107
-38 -160 -54 -73 -22 -249 -85 -277 -99 -13 -6 -23 -18 -23 -27 0 -19 167
-192 280 -291 130 -114 332 -258 404 -290 12 -5 29 -13 39 -19 9 -5 25 -15 35
-20 9 -6 22 -12 27 -14 6 -1 26 -9 45 -16 90 -32 235 -44 305 -25 67 18 137
101 120 142 -4 10 -11 34 -16 53 -11 49 -64 199 -83 235 -9 17 -16 35 -16 42
0 6 -7 24 -15 40 -8 15 -38 76 -67 136 -78 159 -77 157 -125 230 -28 41 -51
66 -61 66 -9 -1 -37 -5 -62 -9z"></path>
      <path d="M4320 5025 c-7 -8 -17 -15 -23 -15 -5 0 -40 -14 -76 -31 -36 -17 -84
-39 -106 -49 -101 -46 -140 -66 -182 -90 -10 -6 -24 -12 -30 -15 -7 -3 -19 -7
-25 -10 -7 -3 -20 -9 -28 -14 -8 -5 -22 -12 -30 -15 -8 -3 -24 -11 -35 -18
-11 -6 -27 -15 -35 -19 -149 -77 -241 -127 -345 -188 -44 -26 -87 -50 -95 -54
-8 -4 -27 -15 -42 -25 -14 -9 -48 -30 -75 -46 -26 -16 -78 -49 -115 -73 -37
-23 -71 -43 -77 -43 -5 0 -11 -3 -13 -7 -4 -10 -65 -53 -74 -53 -5 0 -68 -46
-98 -71 -5 -5 -5 -14 2 -21 18 -22 112 -211 112 -225 0 -7 4 -21 10 -31 14
-24 40 -101 49 -143 4 -19 11 -41 15 -47 4 -6 11 -39 16 -74 4 -35 13 -81 19
-103 17 -64 14 -412 -4 -471 -8 -27 -15 -65 -15 -84 -1 -19 -7 -46 -15 -60 -8
-14 -14 -34 -15 -45 0 -11 -7 -33 -15 -49 -8 -15 -15 -36 -16 -45 -1 -23 -105
-216 -160 -298 -26 -37 -63 -84 -83 -102 -20 -19 -36 -40 -36 -47 0 -17 84
-86 203 -167 56 -38 104 -73 105 -78 2 -5 8 -9 14 -9 6 0 40 -20 77 -44 36
-24 78 -50 93 -57 100 -52 320 -159 353 -173 22 -9 48 -21 57 -26 10 -6 23
-10 30 -10 7 0 26 -7 42 -15 16 -9 46 -20 65 -25 90 -23 141 -39 170 -54 l31
-17 0 -84 c0 -54 6 -99 16 -125 24 -59 15 -71 -43 -63 -26 3 -60 12 -75 19
-15 8 -40 14 -55 14 -16 0 -37 6 -48 14 -11 7 -33 16 -50 19 -28 5 -95 27
-140 46 -11 5 -40 16 -65 26 -88 34 -289 131 -395 190 -33 19 -67 37 -75 41
-8 4 -26 15 -40 25 -14 9 -59 38 -100 65 -99 63 -259 183 -341 256 -37 32 -71
58 -76 58 -6 0 -30 -10 -54 -23 -47 -25 -129 -55 -219 -81 -111 -32 -501 -29
-534 4 -5 5 -21 10 -35 10 -15 0 -39 7 -55 15 -15 8 -33 15 -38 15 -21 0 -159
70 -230 116 -90 59 -106 72 -247 212 -62 61 -120 112 -127 112 -7 0 -39 -32
-71 -71 -32 -40 -68 -84 -81 -100 l-22 -27 46 -69 c95 -139 212 -282 334 -407
222 -228 379 -347 720 -546 25 -15 160 -80 166 -80 3 0 26 -9 52 -21 26 -11
61 -26 77 -33 36 -16 89 -35 130 -46 17 -5 44 -13 60 -18 17 -6 57 -18 90 -27
33 -9 81 -23 106 -31 26 -8 59 -14 75 -14 15 0 53 -6 83 -14 166 -42 549 -58
766 -31 72 9 162 22 200 31 39 8 82 14 96 14 15 0 43 7 62 15 20 8 50 15 67
15 17 0 43 6 58 14 15 7 51 16 79 19 l53 6 26 -52 c26 -53 29 -58 78 -142 35
-60 144 -192 212 -257 52 -50 178 -148 190 -148 4 0 15 -6 23 -14 23 -21 213
-116 232 -116 8 0 19 -4 25 -9 11 -10 99 -38 157 -51 23 -5 62 -14 87 -21 72
-18 454 -15 510 5 25 9 54 16 65 16 48 0 265 88 380 154 78 44 173 117 246
188 97 96 169 173 169 183 0 4 12 24 28 44 79 105 162 290 205 456 43 167 56
360 33 480 -9 44 -18 101 -21 127 -4 26 -10 50 -16 53 -5 4 -9 21 -9 38 0 18
-6 41 -14 52 -7 11 -16 33 -20 49 -9 37 -93 208 -131 266 -132 203 -323 376
-540 491 -74 39 -87 59 -64 101 7 13 16 39 20 58 4 19 12 49 17 65 50 147 91
473 91 730 0 138 -13 343 -24 353 -3 3 -13 -2 -23 -11 -10 -10 -25 -17 -33
-17 -8 0 -21 -6 -27 -12 -7 -7 -52 -20 -100 -28 -79 -14 -98 -14 -202 0 -63 9
-125 22 -137 28 -12 7 -31 12 -42 12 -60 0 -436 205 -485 264 -6 7 -39 34 -74
60 -91 69 -296 276 -386 391 -44 55 -86 106 -94 113 -21 16 -57 15 -72 -3z
m1220 -2240 c23 -8 54 -15 69 -15 14 0 35 -7 45 -15 11 -8 28 -15 39 -15 34 0
207 -91 286 -151 217 -163 392 -423 431 -639 5 -25 13 -58 19 -73 17 -44 14
-353 -4 -413 -8 -27 -15 -61 -15 -75 0 -14 -7 -34 -15 -45 -8 -10 -15 -27 -15
-37 0 -11 -6 -31 -14 -45 -7 -15 -28 -58 -47 -97 -77 -159 -219 -314 -394
-431 -72 -48 -207 -114 -232 -114 -11 0 -28 -7 -39 -15 -10 -8 -31 -15 -45
-15 -15 0 -46 -7 -69 -15 -61 -21 -392 -21 -443 0 -20 8 -49 15 -65 15 -15 0
-37 7 -48 15 -10 8 -27 15 -38 15 -39 0 -225 103 -317 174 -126 97 -248 247
-319 391 -27 56 -50 110 -50 118 0 9 -6 31 -14 49 -35 82 -46 166 -46 336 0
125 4 181 15 212 8 23 15 54 15 69 0 14 7 35 15 45 8 11 15 29 15 39 0 11 23
65 50 122 57 116 170 264 258 339 31 26 68 58 82 70 58 50 260 156 298 156 10
0 27 7 38 15 10 8 30 15 44 15 14 0 45 7 70 14 65 21 382 21 440 1z"></path>
      <path d="M1593 4546 c-57 -6 -108 -17 -115 -24 -7 -7 -20 -12 -30 -12 -23 0
-133 -58 -154 -81 -15 -17 -15 -21 0 -53 9 -19 16 -43 16 -54 0 -11 7 -33 15
-48 8 -16 15 -38 15 -49 0 -11 7 -29 15 -39 8 -11 15 -29 15 -41 0 -12 7 -30
15 -41 8 -10 15 -25 15 -32 0 -7 9 -34 21 -60 11 -26 27 -63 36 -82 8 -19 43
-92 77 -162 48 -99 65 -127 81 -127 11 -1 47 25 80 57 33 32 82 76 109 97 28
22 64 53 80 68 29 27 119 99 226 182 25 19 68 52 95 74 28 21 78 58 113 81 37
25 62 49 62 59 0 20 -92 103 -155 141 -22 13 -42 27 -45 31 -3 4 -17 13 -30
18 -14 6 -32 15 -40 20 -51 30 -191 69 -275 76 -38 3 -86 7 -105 9 -19 2 -81
-2 -137 -8z"></path>
      <path d="M1030 4176 c0 -8 -6 -21 -13 -28 -7 -7 -29 -49 -51 -93 -21 -44 -42
-87 -46 -96 -5 -9 -12 -34 -16 -55 -3 -22 -11 -44 -16 -51 -31 -39 -34 -477
-4 -579 48 -165 62 -205 76 -223 15 -20 22 -14 222 185 l207 206 -31 67 c-17
36 -33 68 -37 71 -3 3 -24 41 -45 85 -21 44 -43 87 -47 95 -5 8 -12 22 -15 30
-10 26 -65 144 -80 173 -8 16 -14 36 -14 46 0 9 -7 26 -15 37 -8 10 -15 25
-15 32 0 8 -6 28 -14 45 -8 18 -16 40 -20 50 -7 21 -26 23 -26 3z"></path>
      <path d="M2525 3974 c-16 -13 -115 -88 -220 -166 -173 -129 -272 -204 -285
-218 -3 -3 -27 -23 -55 -45 -88 -69 -195 -166 -195 -177 0 -10 63 -106 113
-173 55 -73 152 -200 157 -205 3 -3 35 -41 70 -85 36 -43 121 -137 190 -208
69 -71 131 -136 138 -143 7 -8 19 -14 26 -14 26 0 139 144 188 240 27 52 77
201 88 262 6 29 14 73 20 98 12 59 12 272 -1 330 -5 25 -13 72 -18 105 -5 33
-13 71 -19 85 -6 14 -18 50 -27 80 -24 77 -82 208 -109 243 -17 22 -25 21 -61
-9z"></path>
      <path d="M1480 3133 c-28 -32 -118 -125 -199 -208 -81 -82 -151 -156 -155
-163 -8 -14 67 -113 131 -173 66 -62 166 -132 238 -168 123 -60 174 -76 303
-96 95 -15 112 -15 203 -1 100 16 195 42 204 55 3 6 -39 54 -251 283 -29 32
-77 88 -106 125 -29 38 -56 70 -60 73 -4 3 -46 57 -92 120 -47 63 -89 120 -93
125 -5 6 -19 27 -33 47 -14 21 -28 38 -31 38 -4 0 -30 -26 -59 -57z"></path>
    </g>
  </symbol>
  <symbol xmlns="http://www.w3.org/2000/svg" viewBox="0 0 16 16" id="chevron-right">
    <path fill-rule="evenodd" d="M4.646 1.646a.5.5 0 0 1 .708 0l6 6a.5.5 0 0 1 0 .708l-6 6a.5.5 0 0 1-.708-.708L10.293 8 4.646 2.354a.5.5 0 0 1 0-.708z"></path>
  </symbol>
  <symbol xmlnsDc="http://purl.org/dc/elements/1.1/" xmlnsCc="http://creativecommons.org/ns#" xmlnsRdf="http://www.w3.org/1999/02/22-rdf-syntax-ns#" xmlnsSvg="http://www.w3.org/2000/svg" xmlns="http://www.w3.org/2000/svg" xmlnsSodipodi="http://sodipodi.sourceforge.net/DTD/sodipodi-0.dtd" xmlnsInkscape="http://www.inkscape.org/namespaces/inkscape" id="darts" version="1.1" inkscapeVersion="0.48.4 r9939" sodipodiDocname="target.svg" viewBox="0 0 31.846254 30.283754">
    <metadata id="metadata8">
      <rdf:RDF>
        <cc:Work rdfAbout="">
          <dc:format>image/svg+xml</dc:format>
          <dc:type rdfResource="http://purl.org/dc/dcmitype/StillImage"></dc:type>
          <dc:title></dc:title>
        </cc:Work>
      </rdf:RDF>
    </metadata>
    <defs id="defs6"></defs>
    <sodipodi:namedview pagecolor="#ffffff" bordercolor="#666666" borderopacity="1" objecttolerance="10" gridtolerance="10" guidetolerance="10" inkscapePageopacity="0" inkscapePageshadow="2" inkscapeWindowWidth="1301" inkscapeWindowHeight="744" id="namedview4" showgrid="false" showguides="true" inkscapeGuideBbox="true" inkscapeZoom="6.7428571" inkscapeCx="-13.472137" inkscapeCy="3.1421487" inkscapeWindowX="65" inkscapeWindowY="24" inkscapeWindowMaximized="1" inkscapeCurrentLayer="svg2" fitMarginTop="0" fitMarginLeft="0" fitMarginRight="0" fitMarginBottom="0">
      <inkscape:grid type="xygrid" id="grid3084" empspacing="5" visible="true" enabled="true" snapvisiblegridlinesonly="true" originx="5.09375px" originy="-33.908754px"></inkscape:grid>
    </sodipodi:namedview>
    <path d="m 27.929555,0.03731675 -4.53125,3.96874995 0.03125,2.75 -10.6875,9.3125003 c -0.267116,0.240883 -0.25303,0.675245 0.03125,1 0.286602,0.327408 0.727387,0.39535 1,0.15625 l 10.5625,-9.2187503 2.9375,0.4375 4.53125,-3.9375 -3.84375,-0.59375 -0.03125,-3.87499995 z M 12.648305,5.0060667 c -6.9620639,0 -12.59374989,5.6629363 -12.59374989,12.6250003 0,6.962064 5.63168599,12.59375 12.59374989,12.59375 6.962064,0 12.625,-5.631686 12.625,-12.59375 0,-2.3535 -0.655558,-4.549492 -1.78125,-6.4375 l -2.375,2.0625 c 0.667511,1.314588 1.03125,2.800572 1.03125,4.375 0,5.323932 -4.301069,9.625 -9.625,9.625 -5.3239309,0 -9.6562499,-4.301068 -9.6562499,-9.625 0,-5.323931 4.332319,-9.6562503 9.6562499,-9.6562503 1.956061,0 3.763927,0.589802 5.28125,1.59375 l 2.375,-2.0625 c -2.103887,-1.568663 -4.710796,-2.5 -7.53125,-2.5 z m -0.125,5.4687503 c -3.9204059,0.05529 -7.0728249,3.266717 -7.0624999,7.1875 0.01041,3.952804 3.234696,7.135409 7.1874999,7.125 3.952804,-0.01041 7.135409,-3.203446 7.125,-7.15625 -0.0025,-0.963496 -0.182807,-1.879055 -0.53125,-2.71875 l -1.0625,0.875 c 0.186067,0.571902 0.310833,1.179428 0.3125,1.8125 0.0085,3.243326 -2.600424,5.866459 -5.84375,5.875 -3.2433259,0.0085 -5.8664589,-2.600424 -5.8749999,-5.84375 -0.0085,-3.217052 2.564506,-5.86088 5.7812499,-5.90625 l 0.0625,0 c 0.786243,-0.0021 1.533813,0.157395 2.21875,0.4375 l 1.03125,-0.90625 c -0.98704,-0.509396 -2.096333,-0.78437 -3.28125,-0.78125 l -0.0625,0 z m -0.03125,3.71875 c -0.202221,0.01134 -0.403919,0.05184 -0.59375,0.09375 -0.657519,0.145166 -1.235104,0.470472 -1.6875,0.9375 -0.4523959,0.467028 -0.7751689,1.055884 -0.9062499,1.71875 -0.04414,0.22039 -0.06311,0.45412 -0.0625,0.6875 6.2e-4,0.235286 0.01681,0.465563 0.0625,0.6875 0.09197,0.44349 0.285305,0.856762 0.53125,1.21875 0.2446669,0.362813 0.5442499,0.66139 0.9062499,0.90625 0.543,0.367291 1.200392,0.595609 1.90625,0.59375 0.421314,-0.0011 0.814832,-0.07641 1.1875,-0.21875 0.25169,-0.09613 0.499365,-0.224841 0.71875,-0.375 0.18814,-0.128773 0.34119,-0.274721 0.5,-0.4375 0.153784,-0.154596 0.284232,-0.318361 0.40625,-0.5 0.24486,-0.365662 0.441233,-0.77367 0.53125,-1.21875 0.04095,-0.202475 0.05993,-0.41186 0.0625,-0.625 l -1.1875,1.03125 c -0.607855,0.534557 -1.811538,0.131532 -2.71875,-0.90625 -0.899889,-1.029358 -1.123786,-2.270465 -0.53125,-2.8125 l 0.875,-0.78125 z" id="path3064" inkscapeConnectorCurvature="0"></path><text xml:space="preserve" x="-9.1435385" y="81.544205" id="text3087" sodipodiLinespacing="125%">
      <tspan sodipodiRole="line" id="tspan3089" x="-9.1435385" y="81.544205"></tspan>
    </text>
  </symbol>
  <symbol xmlns="http://www.w3.org/2000/svg" id="menu-icon" viewBox="0 0 48 48">
    <path fill="#e0b358" d="M25.457,7.504c-6.171-0.17-11.438,0.347-17.579,0.978c-0.611,0.063-1.244,0.136-1.77,0.453 c-1.354,0.815-1.381,2.156-1.244,3.731c0.045,0.522,0.163,1.146,0.65,1.338c0.135,0.053,0.283,0.064,0.429,0.074 c11.101,0.736,23.465,0.383,34.557-0.468c1.366-0.105,1.708-0.247,2.437-1.407c0.825-1.312,0.618-3.068-0.707-3.871 c-1.326-0.802-1.721-0.872-3.271-0.875C34.773,7.45,29.641,7.62,25.457,7.504z"></path>
    <path fill="#010101" d="M18.881,14.979c-4.255,0-8.643-0.115-12.972-0.402c-0.152-0.01-0.364-0.022-0.58-0.107 c-0.84-0.332-0.93-1.369-0.963-1.76C4.228,11.119,4.229,9.483,5.85,8.508c0.639-0.385,1.381-0.461,1.977-0.521 c5.787-0.595,11.256-1.161,17.644-0.981l0,0C28.058,7.078,31.02,7.038,33.883,7c1.76-0.023,3.487-0.043,5.076-0.042 c1.623,0.004,2.104,0.086,3.528,0.947c0.684,0.414,1.163,1.076,1.35,1.865c0.212,0.896,0.038,1.879-0.478,2.7 c-0.83,1.318-1.318,1.523-2.822,1.639C34.74,14.554,27.059,14.979,18.881,14.979z M23.075,7.972 c-5.341,0-10.122,0.492-15.146,1.009C7.297,9.046,6.781,9.115,6.366,9.364c-1.034,0.622-1.149,1.586-1.004,3.26 c0.046,0.538,0.159,0.847,0.335,0.916c0.067,0.026,0.183,0.033,0.275,0.039c12.594,0.833,25.706,0.207,34.489-0.467 c1.224-0.094,1.417-0.165,2.051-1.175c0.374-0.595,0.502-1.301,0.352-1.936c-0.088-0.373-0.315-0.891-0.895-1.241 c-1.239-0.749-1.533-0.799-3.013-0.803C37.371,7.953,35.651,7.977,33.896,8c-2.874,0.038-5.845,0.077-8.453,0.005l0,0 C24.64,7.982,23.852,7.972,23.075,7.972z"></path>
    <path fill="#e0b358" d="M24.805,21.407c-5.722,0.191-11.388,0.051-17.111,0.228c-1.011,0.031-2.189,0.153-2.727,1.009 c-0.53,0.844-0.354,2.297-0.215,3.315c0.124,0.906,0.713,1.324,1.623,1.415c1.055,0.106,2.48,0.064,3.542,0.083 c9.226,0.17,19.083-0.229,28.12-0.008c1.239,0.03,2.573-0.209,3.492-1.04c0.753-0.681,1.083-1.731,1.122-2.746 c0.033-0.861-0.162-1.803-0.827-2.351c-0.651-0.537-1.571-0.559-2.415-0.554C34.351,20.788,29.861,21.239,24.805,21.407z"></path>
    <path fill="#010101" d="M15.117,28.002c-1.754,0-3.497-0.013-5.209-0.044c-1.052-0.021-2.492,0.023-3.582-0.086 c-1.521-0.151-1.965-1.087-2.069-1.845c-0.173-1.268-0.308-2.7,0.288-3.648c0.735-1.17,2.356-1.22,3.135-1.244 c2.804-0.086,5.637-0.097,8.376-0.107c2.859-0.011,5.815-0.022,8.733-0.12l0,0c2.062-0.068,4.057-0.187,5.986-0.3 c2.768-0.163,5.63-0.331,8.632-0.349c0.767,0,1.911-0.011,2.735,0.669c0.697,0.572,1.055,1.552,1.008,2.756 c-0.05,1.293-0.507,2.393-1.286,3.098c-1.124,1.017-2.714,1.195-3.84,1.169c-4.692-0.114-9.705-0.061-14.55-0.009 C20.718,27.972,17.904,28.002,15.117,28.002z M24.822,21.907c-2.933,0.098-5.897,0.109-8.763,0.12 c-2.733,0.011-5.56,0.021-8.349,0.107c-0.97,0.029-1.923,0.145-2.319,0.775c-0.452,0.721-0.251,2.191-0.143,2.982 c0.06,0.435,0.246,0.892,1.177,0.985c1.035,0.104,2.465,0.062,3.501,0.08c4.418,0.082,9.054,0.032,13.538-0.017 c4.855-0.052,9.875-0.105,14.585,0.009c0.95,0.026,2.266-0.116,3.145-0.911c0.78-0.705,0.935-1.803,0.958-2.395 c0.02-0.512-0.038-1.445-0.645-1.945c-0.504-0.414-1.284-0.442-2.094-0.44c-2.976,0.018-5.698,0.178-8.58,0.347 C28.898,21.72,26.896,21.838,24.822,21.907L24.822,21.907z"></path>
    <path fill="#e0b358" d="M23.814,33.916c-5.881,0.053-11.022-0.458-16.907-0.229c-0.386,0.015-0.795,0.112-1.069,0.385 c-0.377,0.376-0.343,0.985-0.283,1.514l0.133,1.173c0.114,1.008,1.017,2.776,2.032,2.782c8.718,0.05,16.994,0.025,25.712-0.074 c1.72-0.02,3.444-0.042,5.154-0.226c1.07-0.115,2.134-0.292,3.184-0.532c0.394-0.09,0.813-0.205,1.074-0.513 c0.214-0.254,0.285-0.597,0.33-0.926c0.08-0.579,0.105-1.165,0.077-1.748c-0.05-1.034-0.899-1.865-1.933-1.895 C35.427,33.455,29.755,33.863,23.814,33.916z"></path>
    <path fill="#010101" d="M16.402,40.067c-2.868,0-5.748-0.008-8.687-0.025c-1.398-0.008-2.402-2.136-2.525-3.226 l-0.133-1.173c-0.053-0.471-0.152-1.347,0.427-1.926c0.326-0.324,0.811-0.508,1.403-0.53c3.345-0.128,6.51-0.021,9.571,0.085 c2.362,0.082,4.802,0.169,7.351,0.144l0,0c2.266-0.021,4.527-0.093,6.714-0.164c3.518-0.114,7.154-0.23,10.808-0.124 c1.293,0.038,2.355,1.079,2.418,2.371c0.03,0.614,0.003,1.233-0.081,1.841c-0.055,0.405-0.147,0.83-0.443,1.18 c-0.359,0.425-0.883,0.572-1.346,0.678c-1.064,0.243-2.155,0.425-3.241,0.542c-1.765,0.189-3.591,0.21-5.202,0.229 C27.573,40.035,22.011,40.067,16.402,40.067z M10.118,34.127c-1.043,0-2.101,0.018-3.192,0.061 C6.594,34.2,6.333,34.285,6.19,34.427C5.981,34.635,6,35.08,6.051,35.53l0.133,1.173c0.106,0.942,0.935,2.335,1.538,2.339 c8.681,0.052,16.849,0.027,25.703-0.074c1.667-0.019,3.39-0.038,5.107-0.223c1.047-0.113,2.099-0.289,3.125-0.522 c0.319-0.073,0.645-0.16,0.804-0.349c0.13-0.154,0.181-0.413,0.216-0.67c0.076-0.547,0.1-1.104,0.073-1.656 c-0.038-0.773-0.674-1.397-1.448-1.42c-3.623-0.106-7.244,0.01-10.747,0.124c-2.192,0.07-4.459,0.144-6.737,0.164l0,0 c-2.565,0.028-5.021-0.062-7.394-0.144C14.291,34.198,12.237,34.127,10.118,34.127z"></path>
  </symbol>
  <symbol version="1.0" xmlns="http://www.w3.org/2000/svg" preserveAspectRatio="xMidYMid meet" viewBox="0 0 300.000000 188.000000" id="ope-logo">
    <metadata>Created by potrace 1.10, written by Peter Selinger 2001-2011</metadata>
    <g transform="translate(0.000000,188.000000) scale(0.100000,-0.100000)" stroke="none">
      <path d="M570 1649 c-30 -12 -76 -41 -102 -65 -26 -24 -45 -44 -42 -44 2 0 -4
-17 -15 -38 -52 -102 -71 -232 -72 -491 -1 -170 4 -246 25 -336 2 -11 7 -33
11 -50 21 -96 119 -214 196 -236 53 -16 71 -18 127 -20 52 -1 142 19 142 32 0
5 6 9 13 9 19 1 93 72 101 98 4 12 12 19 18 16 6 -4 8 -2 5 4 -4 5 1 30 11 54
18 41 34 116 47 220 3 26 6 123 6 216 l0 170 42 -1 42 -2 1 -403 2 -403 -36
-36 c-46 -47 -56 -115 -22 -151 43 -45 89 -63 200 -75 53 -6 144 20 168 49 37
43 26 98 -29 146 -37 31 -43 43 -46 82 -4 43 8 63 20 32 6 -14 79 -36 123 -36
47 0 103 22 143 57 39 33 89 121 97 172 3 14 7 33 10 40 24 69 23 445 -2 551
-17 73 -52 136 -100 179 -57 51 -103 62 -195 48 -36 -6 -57 -18 -93 -52 -25
-25 -46 -38 -46 -31 0 8 -12 28 -26 45 -20 24 -34 31 -62 31 -67 0 -113 -20
-162 -69 l-47 -47 -12 58 c-6 32 -21 79 -31 103 -19 44 -70 126 -70 113 0 -4
-11 4 -25 17 -47 42 -95 59 -180 62 -63 2 -92 -2 -135 -18z m232 -25 c87 -29
149 -113 182 -247 40 -158 40 -573 1 -721 -49 -187 -132 -258 -298 -257 -170
1 -258 87 -302 298 -23 108 -31 391 -15 534 31 288 123 409 310 409 43 0 96
-7 122 -16z m820 -239 c45 -30 81 -89 104 -175 26 -94 27 -451 1 -561 -36
-154 -110 -229 -226 -229 -58 0 -116 25 -127 55 -4 8 -12 15 -20 15 -11 0 -14
-18 -14 -80 0 -84 2 -87 56 -120 49 -29 51 -103 4 -127 -32 -16 -190 -17 -241
-2 -53 16 -83 51 -83 96 0 30 7 42 40 69 l39 33 3 402 c2 221 1 412 -2 425 -6
21 -12 24 -51 24 -34 0 -47 5 -55 20 -16 29 3 79 43 117 39 37 60 48 110 57
58 11 85 -11 93 -74 8 -59 22 -63 48 -16 25 47 56 75 103 92 51 19 128 10 175
-21z"></path>
      <path d="M622 1464 c-61 -43 -79 -165 -62 -437 17 -280 45 -415 94 -457 42
-34 110 -10 142 52 47 91 26 593 -32 770 -25 78 -88 110 -142 72z m86 -27 c20
-16 46 -77 46 -113 1 -19 4 -34 8 -34 3 0 9 -35 13 -77 3 -43 8 -92 10 -110 3
-18 6 -121 6 -230 2 -183 1 -201 -19 -239 -16 -32 -29 -43 -53 -48 -36 -7 -53
4 -74 44 -35 67 -56 255 -58 510 -2 215 -1 227 20 267 13 22 28 43 35 45 16 6
49 -2 66 -15z"></path>
      <path d="M592 1250 c0 -14 2 -19 5 -12 2 6 2 18 0 25 -3 6 -5 1 -5 -13z"></path>
      <path d="M1393 1240 c-57 -23 -74 -146 -49 -370 24 -230 56 -304 129 -304 81
0 102 58 94 264 -14 329 -67 453 -174 410z m75 -38 c24 -21 48 -101 58 -187 3
-33 9 -87 13 -120 10 -87 6 -235 -7 -267 -13 -30 -56 -47 -81 -31 -28 18 -53
77 -68 158 -18 104 -27 374 -13 412 20 52 60 67 98 35z"></path>
      <path d="M2487 1655 c-73 -25 -107 -86 -107 -187 0 -35 7 -87 14 -115 8 -29
12 -53 9 -53 -3 0 -1 -6 5 -12 5 -7 13 -26 16 -43 3 -16 19 -75 36 -130 28
-94 37 -152 45 -281 3 -56 15 -80 50 -95 20 -9 20 -9 0 -7 -11 2 -26 -1 -32
-5 -7 -5 -13 -6 -13 -2 0 10 -59 -24 -81 -48 -59 -62 -54 -182 11 -256 27 -32
111 -51 163 -38 103 26 159 157 109 254 -23 45 -85 95 -107 87 -20 -8 -28 16
-12 34 10 12 17 47 20 112 2 52 7 106 10 120 18 74 32 126 63 225 39 129 43
150 49 230 13 167 -101 263 -248 210z m161 -35 c43 -26 62 -74 62 -152 -1 -70
-9 -109 -68 -313 -43 -148 -62 -251 -62 -334 0 -52 -12 -70 -34 -52 -9 7 -15
48 -19 119 -4 89 -14 136 -56 282 -61 209 -75 292 -60 358 11 49 39 88 74 102
39 17 128 11 163 -10z m-6 -938 c44 -25 61 -69 56 -141 -4 -52 -9 -67 -35 -92
-56 -57 -168 -56 -217 2 -45 53 -43 171 3 213 49 44 133 52 193 18z"></path>
      <path d="M2129 1456 c-2 -2 -30 -6 -62 -9 -58 -5 -133 -43 -167 -84 -26 -32
-58 -96 -70 -143 -7 -25 -15 -52 -17 -60 -16 -48 -22 -286 -10 -415 21 -238
126 -358 314 -358 85 0 143 24 193 81 63 70 80 133 46 171 -27 30 -52 31 -104
5 -98 -50 -177 -17 -211 87 -13 40 -21 126 -13 147 3 9 41 12 142 12 76 0 150
4 164 10 46 17 67 66 62 142 -2 39 0 66 5 62 5 -3 9 2 9 11 0 9 -4 14 -9 11
-4 -3 -11 16 -14 42 -14 117 -87 232 -169 267 -21 8 -38 13 -38 10 0 -2 -11 0
-24 5 -13 5 -26 7 -27 6z m98 -57 c87 -41 132 -144 140 -324 7 -156 16 -149
-194 -155 l-168 -5 -3 -63 c-9 -199 123 -316 261 -231 45 27 75 25 83 -6 14
-58 -42 -142 -122 -181 -48 -23 -63 -26 -127 -22 -168 11 -242 106 -269 343
-13 119 -4 333 17 423 26 108 75 185 138 219 69 36 169 36 244 2z"></path>
      <path d="M2047 1269 c-33 -19 -50 -70 -51 -154 l-1 -80 105 0 105 0 -2 55 c-6
130 -84 221 -156 179z m85 -46 c38 -41 61 -156 33 -166 -5 -3 -39 -4 -75 -3
l-65 1 -1 66 c-3 114 50 163 108 102z"></path>
    </g>
  </symbol>
  <symbol version="1.1" id="volleyball" xmlns="http://www.w3.org/2000/svg" xmlns:xlink="http://www.w3.org/1999/xlink" x="0px" y="0px" xml:space="preserve" viewBox="0 0 58 58">
    <g>
      <path d="M29,0C13.01,0,0,13.009,0,29s13.01,29,29,29s29-13.009,29-29S44.99,0,29,0z M56,29c0,1.749-0.173,3.458-0.492,5.115
		c-2.68-11.081-6.982-18.874-17.726-24.449c0.671-0.817,1.375-1.647,2.118-2.52c0.549-0.645,1.121-1.319,1.703-2.015
		C50.157,9.667,56,18.662,56,29z M8.168,46.158c-1.854-2.247-3.347-4.801-4.403-7.569c4.645,1.993,8.561,3.001,12.669,3.001
		c4.88,0,10.052-1.436,17.024-4.311c1.269,2.292,2.348,4.683,3.204,7.184C24.248,49.4,18.779,48.87,8.168,46.158z M16.026,32.007
		c4.546,0,8.78-0.619,12.6-1.84l0.117,0.156c1.374,1.659,2.606,3.398,3.715,5.202c-13.703,5.609-19.664,5.053-29.526,0.499
		c-0.498-1.847-0.808-3.77-0.9-5.749C6.916,31.425,11.616,32.007,16.026,32.007z M30.314,29.086l-0.275-0.367
		c0.404-3.853,1.07-6.867,1.975-9.407C42.76,26.641,47.391,35.536,47.37,48.763c-1.95,1.814-4.165,3.345-6.583,4.524
		C39.541,44.122,36.017,35.973,30.314,29.086z M28.082,28.242c-2.821,0.909-5.889,1.467-9.158,1.671
		c1.57-13.933,5.712-18.927,12.457-27.053l0.576-0.695c2.739,0.3,5.354,1.011,7.786,2.07c-0.465,0.553-0.923,1.093-1.367,1.614
		C33.16,11.975,29.37,16.45,28.082,28.242z M29.486,2.012C22.892,9.96,18.491,15.494,16.905,29.993
		c-2.245,0.041-4.573-0.076-6.972-0.351c1.484-13.674,4.794-17.652,11.244-25.388l1.186-1.427C24.487,2.289,26.71,2,29,2
		C29.163,2,29.323,2.009,29.486,2.012z M18.77,4.019C12.824,11.177,9.436,15.787,7.95,29.38c-1.938-0.288-3.917-0.676-5.93-1.164
		C2.334,17.286,9.17,7.965,18.77,4.019z M10.713,48.842c3.717,0.866,6.88,1.388,10.099,1.388c4.695,0,9.546-1.121,16.441-3.853
		c0.733,2.491,1.276,5.072,1.61,7.748C35.806,55.331,32.481,56,29,56C21.951,56,15.527,53.282,10.713,48.842z M49.342,46.724
		c-0.447-13.008-5.515-21.912-16.576-29.321c1.023-2.304,2.28-4.234,3.747-6.144C47.99,17.091,51.819,25.613,54.374,38.23
		C53.226,41.376,51.503,44.247,49.342,46.724z"></path>
    </g>
    <g></g>
    <g></g>
    <g></g>
    <g></g>
    <g></g>
    <g></g>
    <g></g>
    <g></g>
    <g></g>
    <g></g>
    <g></g>
    <g></g>
    <g></g>
    <g></g>
    <g></g>
  </symbol>
  <symbol version="1.0" xmlns="http://www.w3.org/2000/svg" preserveAspectRatio="xMidYMid meet" viewBox="0 0 700.000000 576.000000" id="bags">
    <metadata>Created by potrace 1.12, written by Peter Selinger 2001-2015</metadata>
    <g transform="translate(0.000000,576.000000) scale(0.100000,-0.100000)"  stroke="none">
      <path d="M2700 5739 c-36 -4 -108 -7 -160 -8 -52 0 -153 -10 -225 -21 -71 -11
-265 -29 -430 -40 -165 -11 -327 -25 -360 -30 -33 -5 -107 -14 -165 -20 -58
-6 -139 -15 -180 -21 -41 -5 -114 -11 -162 -14 -96 -4 -138 -10 -213 -30 -27
-7 -124 -16 -215 -20 -91 -3 -183 -10 -205 -15 -22 -5 -65 -10 -96 -10 -31 0
-70 -5 -87 -11 l-32 -11 5 -81 c8 -127 24 -197 59 -257 18 -30 61 -110 95
-177 l61 -123 0 -250 0 -250 36 -50 c42 -58 64 -63 135 -29 49 24 59 34 59 66
0 49 22 29 68 -64 79 -157 102 -197 119 -210 9 -7 43 -13 74 -13 66 0 55 12
165 -195 31 -60 81 -150 111 -199 29 -49 53 -94 53 -100 0 -6 10 -27 21 -46
12 -19 42 -73 66 -120 24 -47 59 -112 77 -145 34 -59 106 -196 161 -305 16
-30 36 -66 45 -80 10 -14 51 -90 92 -170 41 -80 91 -173 112 -207 20 -34 45
-83 57 -110 11 -26 29 -57 40 -69 10 -11 58 -99 106 -195 47 -95 104 -203 126
-239 22 -36 53 -94 70 -130 16 -36 35 -72 42 -80 20 -23 55 -89 55 -103 0 -7
18 -38 40 -71 22 -32 40 -65 40 -73 0 -8 11 -29 25 -47 14 -18 25 -39 25 -48
0 -8 11 -29 25 -48 14 -19 25 -41 25 -50 0 -9 9 -25 20 -35 11 -10 20 -25 20
-33 0 -8 11 -29 24 -46 13 -17 45 -76 71 -131 27 -55 58 -113 69 -130 12 -16
26 -39 32 -50 6 -11 25 -47 44 -80 18 -32 68 -127 110 -210 43 -84 89 -169
102 -191 14 -21 42 -69 62 -106 20 -38 41 -68 46 -68 6 0 10 -9 10 -20 0 -12
7 -34 15 -49 14 -28 26 -31 88 -22 4 1 7 7 7 15 0 14 24 24 110 46 25 7 118
47 207 91 89 43 197 90 240 104 42 14 96 37 120 50 23 14 75 36 114 50 40 13
98 40 130 60 31 19 62 35 69 35 7 0 33 11 59 25 85 44 259 125 272 125 13 0
82 29 230 96 52 24 101 44 107 44 15 0 289 118 317 136 11 7 38 20 60 27 22 8
87 36 145 62 131 59 150 67 230 100 36 15 88 37 115 50 28 13 115 51 195 85
80 34 168 72 195 85 28 12 91 39 140 60 50 20 104 43 122 51 17 8 34 14 37 14
4 0 40 16 81 35 41 19 102 46 137 61 127 53 308 143 308 153 0 6 -134 142
-297 303 -164 161 -328 326 -366 365 -38 40 -135 137 -216 215 -157 154 -705
702 -1156 1156 -154 156 -335 338 -403 405 -68 67 -182 185 -255 262 -73 76
-149 155 -170 175 -20 19 -209 205 -420 412 -210 207 -413 405 -452 440 -77
68 -209 200 -267 265 -36 41 -39 42 -95 40 -32 -1 -87 -5 -123 -8z m1934
-2055 c1017 -1020 1845 -1859 1840 -1863 -5 -5 -628 -275 -1384 -601 -756
-325 -1480 -637 -1609 -693 -221 -95 -234 -99 -245 -81 -6 10 -263 478 -572
1039 -1459 2654 -2085 3797 -2082 3799 6 5 2113 254 2158 255 l45 1 1849
-1856z m-4388 1664 c9 -43 55 -149 71 -166 7 -7 13 -19 13 -27 0 -7 4 -15 8
-17 4 -1 22 -32 40 -68 17 -36 47 -92 65 -125 84 -152 102 -183 125 -220 14
-22 25 -45 25 -52 0 -7 4 -10 9 -7 4 3 8 1 8 -4 0 -5 15 -32 33 -58 19 -27 50
-83 70 -124 20 -41 47 -93 60 -115 45 -76 97 -178 97 -190 0 -6 11 -26 25 -45
14 -18 23 -35 21 -38 -3 -2 -20 -7 -39 -12 -31 -7 -37 -4 -55 20 -11 15 -23
48 -27 74 -4 25 -13 50 -19 54 -6 4 -17 21 -24 37 -21 48 -112 183 -128 189
-8 3 -14 11 -14 18 0 9 3 8 10 -2 5 -8 10 -11 10 -6 0 12 -49 96 -56 96 -3 0
3 -16 15 -36 12 -19 17 -32 11 -29 -20 13 -84 141 -111 223 -26 83 -98 240
-125 272 -6 8 -19 37 -28 63 -9 27 -30 65 -46 86 -34 41 -56 109 -64 194 -6
61 7 71 20 15z m181 -880 c-2 -18 -4 -6 -4 27 0 33 2 48 4 33 2 -15 2 -42 0
-60z"></path>
      <path d="M1865 5371 c-16 -5 -59 -14 -94 -20 -84 -16 -133 -42 -168 -88 -26
-34 -28 -42 -26 -125 2 -101 21 -144 100 -229 46 -49 54 -52 253 -110 65 -18
91 -21 190 -16 235 12 345 51 381 134 44 104 11 226 -92 335 -43 45 -62 58
-94 63 -22 3 -53 14 -70 23 -53 29 -308 51 -380 33z m217 -103 c2 -16 13 -25
38 -31 91 -23 193 -61 225 -82 19 -14 35 -22 35 -18 0 3 14 -12 31 -33 27 -34
30 -45 26 -82 -7 -64 -41 -95 -136 -121 -59 -16 -107 -21 -192 -21 -106 0
-122 3 -247 42 -133 43 -133 43 -173 95 -53 71 -55 122 -5 175 19 21 49 44 67
53 49 26 145 43 241 44 82 1 87 0 90 -21z"></path>
      <path d="M3302 4526 c-56 -53 -169 -132 -273 -191 -29 -16 -73 -42 -98 -56
-38 -21 -47 -32 -49 -59 -3 -27 3 -38 41 -74 25 -22 91 -70 148 -105 57 -35
162 -103 232 -150 71 -47 148 -97 172 -111 51 -28 41 -32 200 70 61 38 137 83
170 99 73 36 209 159 200 182 -3 8 -18 23 -34 32 -16 9 -58 43 -94 75 -35 33
-77 62 -93 66 -15 4 -50 24 -77 43 -27 20 -85 58 -130 85 -44 27 -105 68 -136
92 -31 24 -71 46 -89 50 -31 5 -39 1 -90 -48z m222 -76 c67 -43 150 -100 186
-126 36 -26 80 -52 98 -57 19 -6 66 -42 108 -84 l74 -73 -25 -16 c-28 -18 -78
-13 -127 12 -32 16 -52 18 -43 4 4 -6 11 -24 15 -41 8 -25 7 -29 -5 -19 -9 8
-15 8 -20 0 -5 -8 -14 -6 -32 5 -31 21 -35 17 -23 -26 15 -51 12 -55 -18 -26
-25 24 -30 25 -47 14 -13 -10 -16 -21 -11 -41 l7 -27 -31 16 c-43 22 -53 11
-30 -35 26 -50 25 -58 -1 -34 -16 14 -23 15 -26 7 -3 -7 -12 -13 -20 -13 -13
0 -13 -3 -3 -16 11 -12 10 -18 -3 -32 -16 -15 -17 -14 -17 11 0 17 -5 27 -15
27 -8 0 -15 4 -15 9 0 5 -25 22 -55 36 -54 27 -64 38 -45 50 20 12 9 25 -22
26 -37 1 -64 9 -92 25 -15 9 -16 15 -7 33 7 11 20 21 31 21 11 0 24 9 29 19 9
16 7 20 -13 25 -13 3 -38 3 -55 0 -20 -4 -35 -1 -45 9 -9 8 -24 13 -35 10 -23
-6 -71 24 -71 44 0 12 -10 14 -40 11 -22 -2 -40 1 -40 6 0 5 -3 6 -7 3 -3 -4
-13 -1 -22 7 -9 8 -27 16 -41 18 -25 4 -5 19 135 105 127 78 177 113 213 150
24 24 52 43 64 43 12 0 76 -36 142 -80z"></path>
      <path d="M2532 3728 c-7 -7 -12 -20 -12 -29 0 -9 -34 -92 -76 -185 -42 -93
-94 -209 -117 -259 -50 -111 -53 -154 -14 -173 22 -10 26 -18 21 -37 -8 -31
11 -40 133 -64 177 -36 300 -68 564 -147 172 -51 186 -53 195 -20 4 17 14 26
32 28 22 3 29 13 49 73 14 39 29 106 34 150 10 79 14 99 63 266 14 47 27 112
28 144 l3 58 -70 18 c-38 10 -103 26 -144 34 -41 9 -95 25 -120 35 -42 16
-229 53 -405 80 -38 6 -84 17 -103 25 -43 18 -46 18 -61 3z m173 -64 c213 -34
323 -56 405 -84 47 -15 129 -36 183 -46 54 -10 100 -20 102 -24 9 -15 -18
-136 -67 -298 -5 -19 -16 -73 -23 -120 -16 -106 -46 -212 -59 -212 -34 0 -295
65 -316 79 -55 36 -144 59 -435 110 -64 12 -82 19 -89 37 -3 8 -19 14 -39 14
-19 0 -36 3 -39 6 -11 11 81 232 188 449 24 50 44 96 44 104 0 9 7 11 23 7 12
-3 67 -13 122 -22z"></path>
      <path d="M2598 3093 c6 -2 18 -2 25 0 6 3 1 5 -13 5 -14 0 -19 -2 -12 -5z"></path>
      <path d="M656 4547 c3 -10 9 -15 12 -12 3 3 0 11 -7 18 -10 9 -11 8 -5 -6z"></path>
      <path d="M681 4500 c14 -31 19 -36 19 -24 0 6 -7 19 -16 30 -14 18 -14 18 -3
-6z"></path>
      <path d="M765 4340 c14 -27 28 -50 30 -50 3 0 -6 23 -20 50 -14 28 -28 50 -30
50 -3 0 6 -22 20 -50z"></path>
      <path d="M836 4207 c3 -10 9 -15 12 -12 3 3 0 11 -7 18 -10 9 -11 8 -5 -6z"></path>
    </g>
  </symbol>
  <symbol version="1.0" xmlns="http://www.w3.org/2000/svg" preserveAspectRatio="xMidYMid meet" viewBox="0 0 700.000000 451.000000" id="ope-logo-filled">
    <metadata>Created by potrace 1.12, written by Peter Selinger 2001-2015</metadata>
    <g transform="translate(0.000000,451.000000) scale(0.100000,-0.100000)" stroke="none">
      <path d="M896 4399 c-39 -4 -79 -12 -90 -17 -12 -6 -55 -20 -96 -33 -169 -50
-338 -223 -434 -441 -34 -77 -73 -194 -80 -238 -1 -9 -5 -20 -8 -26 -8 -13
-35 -168 -44 -254 -4 -36 -10 -69 -14 -75 -17 -21 -33 -386 -33 -730 1 -347
15 -658 33 -700 4 -11 13 -63 19 -115 7 -53 19 -127 27 -165 8 -39 16 -74 17
-80 2 -5 5 -14 9 -20 3 -5 13 -37 23 -70 9 -33 30 -88 46 -123 16 -35 29 -66
29 -69 0 -27 132 -200 194 -254 51 -45 165 -119 183 -119 7 0 32 -9 56 -20 92
-43 313 -60 487 -38 286 36 509 227 612 523 11 33 24 65 28 70 5 6 18 57 30
115 12 58 26 115 32 127 6 12 8 29 4 39 -3 9 -2 22 3 28 37 45 65 961 42 1362
-13 209 -36 425 -50 459 -5 11 -19 67 -31 125 -12 58 -25 110 -29 115 -5 6
-16 35 -25 65 -34 106 -85 200 -163 300 -156 201 -446 298 -777 259z m200
-485 c27 -14 57 -33 67 -41 19 -18 81 -127 90 -158 3 -11 17 -58 31 -105 13
-47 32 -132 41 -190 9 -58 20 -121 26 -140 12 -47 37 -269 44 -400 4 -58 9
-112 13 -120 3 -8 7 -46 9 -85 1 -38 6 -144 12 -235 19 -330 8 -723 -22 -810
-2 -8 -12 -49 -22 -90 -18 -79 -64 -167 -112 -211 -96 -91 -270 -91 -357 -1
-49 51 -101 161 -121 257 -9 44 -20 89 -25 100 -16 38 -58 326 -61 425 -1 25
-5 50 -9 55 -21 28 -42 598 -37 982 5 387 10 442 59 572 25 66 43 95 83 137
30 30 65 56 81 59 16 3 36 10 44 15 32 19 116 11 166 -16z"></path>
      <path d="M6330 4399 c-24 -5 -59 -15 -77 -24 -18 -8 -49 -22 -68 -31 -34 -16
-115 -97 -115 -115 0 -5 -11 -33 -25 -62 -44 -98 -53 -278 -24 -477 6 -35 14
-69 18 -75 5 -5 12 -33 16 -62 4 -29 16 -85 27 -125 10 -40 20 -80 20 -88 0
-8 4 -19 8 -25 5 -5 18 -50 30 -100 12 -49 26 -95 32 -102 5 -6 19 -49 30 -95
11 -46 23 -87 28 -93 4 -5 20 -62 35 -125 14 -63 30 -124 35 -135 13 -29 38
-159 46 -240 4 -38 11 -76 17 -82 5 -8 10 -103 11 -225 1 -117 5 -219 9 -225
5 -7 17 -13 27 -13 10 0 22 -4 25 -10 10 -16 21 -12 54 19 l31 29 0 171 c0
176 13 350 30 386 5 11 16 65 26 120 9 55 25 119 35 142 11 23 19 48 19 56 0
20 40 180 49 197 4 8 18 51 30 95 13 44 26 87 31 96 4 8 18 56 30 105 13 49
26 94 30 99 9 13 25 84 45 205 9 52 22 106 28 119 17 34 17 365 0 383 -7 6
-13 22 -13 34 0 33 -52 125 -94 167 -92 92 -277 137 -436 106z"></path>
      <path d="M4968 3760 c-82 -14 -218 -79 -288 -138 -57 -48 -140 -140 -140 -155
0 -3 -16 -32 -35 -64 -19 -32 -35 -63 -35 -69 0 -6 -8 -29 -17 -50 -9 -22 -17
-41 -18 -44 0 -3 -8 -27 -17 -55 -10 -27 -22 -79 -28 -115 -6 -36 -15 -74 -20
-85 -12 -27 -27 -157 -41 -360 -21 -305 5 -966 40 -1040 6 -11 17 -54 25 -97
29 -146 125 -349 195 -412 11 -11 21 -25 21 -33 0 -7 8 -17 17 -20 9 -4 45
-28 80 -55 35 -26 76 -51 91 -54 15 -4 36 -13 47 -20 29 -18 165 -44 234 -44
33 0 62 -4 66 -9 3 -6 20 -8 38 -5 17 3 63 10 100 14 37 5 94 16 125 25 59 17
171 79 185 102 4 7 14 13 20 13 13 0 87 70 87 82 0 4 22 37 49 73 28 38 57 90
67 123 9 31 21 61 26 66 13 16 9 81 -8 115 -20 39 -58 60 -106 56 -54 -5 -76
-13 -148 -60 -97 -62 -123 -70 -230 -70 -121 0 -193 18 -261 65 -60 41 -156
151 -165 190 -4 14 -10 30 -14 35 -14 21 -40 102 -56 175 -19 93 -31 394 -16
432 l11 26 438 4 c390 3 441 6 468 21 17 9 37 17 46 17 39 0 79 71 95 170 20
122 -20 630 -55 698 -5 9 -16 44 -26 77 -47 166 -178 344 -300 407 -31 16 -86
41 -95 42 -3 1 -10 4 -16 8 -38 25 -326 36 -436 18z m156 -409 c3 -4 18 -11
34 -14 51 -10 126 -89 176 -186 25 -49 46 -97 46 -108 0 -10 6 -29 13 -43 21
-40 37 -137 38 -239 2 -81 0 -96 -17 -108 -37 -27 -94 -33 -325 -33 -305 0
-282 -15 -287 185 -3 99 -1 150 7 158 6 6 11 25 11 42 1 43 24 133 49 190 24
54 96 135 121 135 8 0 26 7 40 14 28 16 86 20 94 7z"></path>
      <path d="M3290 3741 c-8 -5 -18 -7 -22 -4 -5 2 -14 1 -21 -5 -7 -5 -38 -19
-69 -31 -90 -36 -198 -150 -251 -266 -24 -53 -45 -75 -72 -75 -36 0 -46 23
-60 139 -15 121 -19 133 -63 175 -53 49 -141 55 -291 19 -81 -19 -153 -64
-240 -151 -89 -89 -124 -160 -125 -252 -1 -58 2 -72 22 -93 27 -29 55 -36 174
-45 64 -5 92 -12 105 -25 17 -17 18 -79 18 -1200 l0 -1182 -22 -47 c-14 -30
-37 -58 -65 -77 -24 -17 -48 -34 -54 -38 -5 -5 -19 -13 -29 -19 -37 -21 -65
-92 -65 -165 0 -81 10 -109 56 -165 30 -38 65 -59 169 -105 52 -23 127 -31
330 -36 261 -6 343 3 404 48 56 40 71 74 71 162 0 104 -16 135 -92 185 -35 23
-79 48 -99 56 -69 29 -78 62 -81 303 -2 208 1 223 52 223 20 0 37 -11 62 -42
19 -24 37 -50 40 -59 10 -25 139 -86 205 -96 91 -14 291 1 328 25 5 4 12 7 15
8 3 0 32 13 64 29 72 34 185 142 214 205 12 25 26 52 31 60 53 81 120 317 146
510 36 276 47 683 26 975 -13 198 -39 397 -56 450 -8 22 -19 62 -25 89 -6 27
-21 72 -34 100 -30 66 -68 143 -83 171 -21 37 -134 155 -149 155 -8 0 -14 4
-14 9 0 11 -105 61 -129 61 -9 0 -22 5 -29 12 -15 15 -271 23 -292 9z m-13
-496 c67 -28 136 -112 168 -205 8 -25 19 -54 24 -65 14 -30 29 -101 42 -190 6
-44 13 -87 16 -95 3 -8 7 -28 9 -45 1 -16 9 -87 17 -157 40 -334 47 -850 14
-979 -22 -89 -66 -160 -115 -185 -87 -45 -143 -51 -209 -23 -88 37 -164 131
-198 244 -10 33 -22 69 -26 80 -16 36 -37 148 -49 250 -6 55 -15 114 -20 130
-5 17 -11 68 -15 115 -4 47 -9 103 -11 125 -2 22 -8 139 -13 260 -8 237 0 450
21 530 28 103 91 185 162 209 55 19 139 19 183 1z"></path>
      <path d="M6308 1676 c-15 -8 -42 -17 -60 -21 -49 -11 -170 -136 -188 -195 -7
-25 -18 -51 -24 -59 -15 -19 -14 -253 0 -272 6 -8 16 -34 23 -59 16 -56 80
-143 129 -174 20 -14 57 -30 82 -37 25 -7 49 -16 54 -21 20 -17 198 -8 261 12
98 33 121 47 180 112 75 83 90 133 90 298 0 127 -15 209 -41 231 -8 6 -12 15
-9 19 10 16 -106 119 -153 136 -26 10 -53 22 -61 28 -23 18 -251 20 -283 2z"></path>
    </g>
  </symbol>
</svg>